<svg width="683" height="683" viewBox="0 0 683 683" fill="none" xmlns="http://www.w3.org/2000/svg">
<path d="M271.333 65.3334C264 68.2667 191.067 113.733 189.333 116.267C187.6 118.933 187.467 131.867 188 219.067C188.667 315.867 188.8 318.933 191.2 320.8C193.467 322.4 211.733 322.667 309.2 322.667H424.667L455.333 300.533C472.267 288.4 488.267 276.667 491.067 274.533L496 270.533V170V69.4667L492.533 66.8001C488.933 64.0001 488.267 64.0001 381.467 64.1334C322.4 64.1334 272.8 64.6667 271.333 65.3334ZM326 85.2001C325.2 85.8667 316.267 92.0001 306 98.8001L287.333 111.333L260.667 111.733C242 112 234.4 111.733 235.333 110.8C236.133 110 246 103.6 257.333 96.6667L278 84.1334L302.667 84.0001C316.667 84.0001 326.667 84.5334 326 85.2001ZM355.6 98.0001L334.4 112H322.933C314.667 112 311.867 111.6 312.933 110.533C313.733 109.733 322.667 103.467 332.8 96.6667L351.333 84.1334H364L376.667 84.0001L355.6 98.0001ZM454.533 84.5334C454.267 84.8001 445.867 91.0667 436 98.2667L418 111.333L389.733 111.733C374.133 112 361.333 111.6 361.333 111.067C361.333 110.533 370.267 104.133 381.067 97.0667L400.667 84.0001H427.867C442.8 84.0001 454.8 84.2667 454.533 84.5334ZM476 177.733V260.933L455.2 275.867C443.733 284.133 433.6 291.2 432.533 291.6C430.933 292.133 430.667 280.133 430.933 209.2L431.333 126.133L453.2 110.4C465.2 101.733 475.2 94.6667 475.467 94.6667C475.733 94.6667 476 132.133 476 177.733ZM277.333 149.333C277.733 159.2 278.533 168.133 279.067 168.933C280.667 171.467 337.733 171.333 339.733 168.933C340.667 167.867 341.467 159.733 341.6 149.2L342 131.333H376H410L410.4 216.933L410.667 302.667H309.333H208V216.667V130.667L242.4 130.933L276.667 131.333L277.333 149.333ZM328 144V157.333H309.333H290.667V144.933C290.667 138 291.067 132 291.6 131.6C292 131.067 300.4 130.667 310.267 130.667H328V144Z" fill="#1e1a4d"/>
<path d="M223.867 256.133C222.8 258.267 222.8 259.867 223.867 262.133C225.2 265.2 225.867 265.333 239.067 265.333C253.467 265.333 256 264.4 256 259.333C256 254.267 253.467 253.333 239.067 253.333C226.533 253.333 225.333 253.6 223.867 256.133Z" fill="#1e1a4d"/>
<path d="M224.933 278.4C222 281.6 222.133 284.4 225.067 287.067C227.2 288.933 230.8 289.333 247.733 289.333C267.867 289.333 268 289.333 270.133 286C272.133 282.933 272.133 282.4 270.133 279.333C268 276 267.867 276 247.467 276C229.467 276 226.8 276.267 224.933 278.4Z" fill="#1e1a4d"/>
<path d="M497.333 291.6C490.133 294.133 487.867 304.8 493.733 308.533C496.267 310.267 547.733 323.467 582.933 331.467C591.067 333.333 591.867 333.867 592.667 337.467C593.867 342.8 600.4 350.133 607.2 353.733C614.8 357.733 638 358 645.867 354.133C653.333 350.4 659.733 343.467 660.8 338C662.933 326.667 658 318.533 645.6 312.4C639.067 309.2 636.533 308.667 626.667 308.8C618 308.8 613.733 309.6 608.8 311.733C605.2 313.333 601.467 314.667 600.267 314.667C599.2 314.667 577.2 309.6 551.467 303.333C496.133 290 499.867 290.8 497.333 291.6ZM636.133 330.267L641.733 332.4L638.667 334.933C633.467 339.2 612.133 337.467 613.6 332.933C614.267 330.933 621.867 328.133 626.933 328.133C628.933 328 633.067 329.067 636.133 330.267Z" fill="#1e1a4d"/>
<path d="M118.667 309.067L84.5333 317.867L80.4 314.933C66.1333 304.8 40 306.933 28 319.333C24.4 323.067 23.4666 325.2 22.9333 331.067C21.6 347.067 34.9333 357.333 56.8 357.333C72.9333 357.333 84.1333 351.733 89.7333 340.8C91.6 336.933 93.0666 336.533 127.467 327.6C147.2 322.533 164.4 317.467 165.733 316.4C168.8 313.467 168.8 305.067 165.6 302.267C161.733 298.667 155.067 299.733 118.667 309.067ZM65.2 329.733C71.2 331.867 71.7333 333.867 66.8 335.867C59.2 339.067 41.7333 336.8 43.0666 332.8C43.7333 330.933 51.6 328.133 56.6666 328.133C58.9333 328.133 62.6666 328.8 65.2 329.733Z" fill="#1e1a4d"/>
<path d="M410.667 341.333C408 344 407.2 348.533 408.8 352.4C409.2 353.467 434.8 373.067 465.733 396L522.133 437.733L519.067 443.733C511.867 458 517.2 473.467 533.067 484L536.133 486L532.8 525.333C530.933 546.933 529.067 567.733 528.667 571.6L527.867 578.4L518.8 581.2C494.667 588.533 483.6 607.867 492.8 626.4C505.6 652.133 553.467 657.333 578 635.733C591.467 624 591.467 604.133 578.267 591.733C573.067 586.8 560.267 580.533 553.067 579.333C547.867 578.4 547.867 578.267 548.533 573.6C548.933 570.8 550.533 552.8 552 533.333C553.6 513.867 555.067 496.667 555.333 495.2C555.867 492.667 557.067 492.267 568.8 491.733L581.733 491.067L611.2 514.133C627.333 526.933 642 537.733 643.6 538.133C650.667 540 658 531.467 654.933 524.8C654.267 523.067 642.533 513.2 629.067 502.667C615.733 492.267 604.133 483.2 603.467 482.533C602.8 482 604.133 479.333 606.667 476.533C609.067 473.733 611.867 469.6 612.8 467.2C615.333 461.067 615.067 451.067 612.133 444.667C608.933 437.467 598.8 428.8 589.467 425.2C579.067 421.067 558 420.133 547.333 423.2C540.667 425.2 539.333 425.2 536.933 423.6C535.333 422.533 508.8 402.933 478 380.133C418.133 335.733 416.933 335.067 410.667 341.333ZM583.067 444.4C594.8 449.333 597.867 457.333 590.533 464.133C573.067 480.533 525.733 468.533 538.133 450.933C544.933 441.2 567.733 437.867 583.067 444.4ZM552.8 600.267C560.933 602.267 568 608.533 568 613.6C568 622.933 552.667 630.133 535.467 629.067C525.467 628.4 519.067 625.867 513.067 620.267C506.667 614.4 508.933 607.6 519.067 602.4C528.533 597.6 539.733 596.933 552.8 600.267Z" fill="#1e1a4d"/>
<path d="M173.333 376.133L115.333 412L107.867 411.333C90.2666 409.6 70.8 416 60.9333 426.533C54 434 51.4666 440.667 52.2666 449.467C53.8666 465.6 66.9333 476.667 90.9333 481.867C93.4666 482.4 99.0666 488.533 111.6 504.267C134.667 533.467 132.8 530.4 128.533 532C126.533 532.8 122 535.6 118.533 538.133C106.667 546.8 102.267 561.867 108 574.267L110.533 579.867L106.933 582.4C104.933 583.867 86.2666 595.6 65.3333 608.667C44.4 621.733 26.2666 633.6 25.0666 634.933C21.8666 638.533 22 642.8 25.4666 647.2C30.6666 653.867 32.8 652.933 82.1333 621.867L128 593.067L134.933 595.6C145.067 599.067 165.867 598.667 176.4 594.933C199.733 586.4 209.6 567.867 200.533 549.467C194.667 537.867 180.267 529.6 161.6 527.2L154.533 526.267L136.667 503.6L118.667 480.933L126 477.867C141.733 471.6 149.6 462.133 150.4 448.8C151.067 439.333 148.4 432.667 141.467 425.6L137.333 421.6L187.067 391.333C214.267 374.533 238.667 359.467 241.067 357.733C244.533 355.067 245.333 353.6 245.333 349.467C245.333 346.267 244.4 343.6 242.933 342.267C237.2 336.933 234.133 338.4 173.333 376.133ZM117.333 434C129.067 438.133 134.133 447.2 128 453.333C116.4 464.933 89.2 465.467 76.6666 454.4C70.4 448.933 70.6666 443.867 77.3333 438.533C86.6666 430.933 103.467 429.067 117.333 434ZM171.467 550C184.133 555.333 187.333 563.467 179.467 570.4C173.2 575.867 166.4 578 154.667 578C142.933 578 136.133 575.867 129.867 570.4C120.133 561.867 126.8 552.4 146 547.467C150.8 546.267 166.133 547.733 171.467 550Z" fill="#1e1a4d"/>
<path d="M322.933 355.067C320 358.133 320 358.667 319.733 420L319.333 481.867L310.667 483.467C284.933 488.267 265.733 500.667 257.2 518.267C254.933 523.2 254.133 526.933 254.133 534.667C254.133 547.6 257.733 555.2 268.667 566L276.8 574.133L250 598.4C207.067 637.333 208 636.533 208 640.267C208 645.733 212.8 650.667 218 650.667C221.867 650.667 226.667 646.933 259.6 616.8L296.933 582.933L305.467 584.933C314.933 587.2 336.133 587.867 349.333 586.267L358 585.2L395.333 618C427.733 646.4 433.2 650.667 436.933 650.667C444.267 650.667 448.667 644 445.867 636.8C445.467 635.733 430.133 621.733 411.867 605.867C393.6 589.867 378.667 576.533 378.667 576.133C378.8 575.733 381.467 573.6 384.667 571.6C403.067 560 410.667 536.667 402.267 518.133C398.533 510 390 500.8 381.2 495.2C373.333 490.267 356.267 484.267 347.333 483.2L340 482.267V420.4V358.533L336.667 355.333C332.533 351.067 326.8 350.933 322.933 355.067ZM354.533 505.2C375.333 511.6 388.8 526.4 385.333 538.8C381.867 550.533 370.933 559.333 352.667 564.8C340.8 568.4 318.267 568.133 306 564.4C279.067 556 267.2 538.667 277.6 523.067C283.6 514 298.933 505.6 315.067 502.667C324.8 500.933 345.067 502.267 354.533 505.2Z" fill="#1e1a4d"/>
</svg>
